{"title":"Person of Interest S04E02 Nautilus 720p HDTV X265","uid":11164403,"size":330340602,"categoryP":"video","categoryS":"hd___tv_shows","magnet":"?xt=urn:btih:2ec402dab0d9859659ce4b2e53b595e354d3574a&amp;dn=Person+of+Interest+S04E02+Nautilus+720p+HDTV+X265&amp;tr=udp%3A%2F%2Ftracker.openbittorrent.com%3A80&amp;tr=udp%3A%2F%2Fopen.demonii.com%3A1337&amp;tr=udp%3A%2F%2Ftracker.coppersurfer.tk%3A6969&amp;tr=udp%3A%2F%2Fexodus.desync.com%3A6969","seeders":2,"leechers":0,"uploader":"atm50","files":-1,"time":1412607341,"description":"Harold reluctantly agrees to help John protect a young woman who is participating in a dangerous and deadly game, meanwhile Shaw works with a group of thieves as her new cover identity.\n\nSource: Person of Interest S04E02 720p HDTV X264-DIMENSION [eztv]\n\nFormat                         : MPEG-4\nFile size                      : 315 MiB\nDuration                       : 43mn 31s\nOverall bit rate               : 1 012 Kbps\n\nVideo\n\nFormat                         : HEVC [X265]\nBit rate                       : 754 Kbps\nMaximum bit rate               : 9 995 Kbps\nWidth                          : 1 280 pixels\nHeight                         : 720 pixels\nDisplay aspect ratio           : 16:9\nFrame rate                     : 23.976 fps\nStream size                    : 235 MiB (74%)\n\nAudio\n\nFormat                         : AC-3\nBit rate                       : 256 Kbps\nChannel(s)                     : 6 channels (5.1)\nSampling rate                  : 48.0 KHz\nBit depth                      : 16 bits\nCompression mode               : Lossy\nStream size                    : 79.7 MiB (25%)\n\nSubtitles: English (External)","torrent":{"xt":"urn:btih:2ec402dab0d9859659ce4b2e53b595e354d3574a","amp;dn":"Person+of+Interest+S04E02+Nautilus+720p+HDTV+X265","amp;tr":["udp%3A%2F%2Ftracker.openbittorrent.com%3A80","udp%3A%2F%2Fopen.demonii.com%3A1337","udp%3A%2F%2Ftracker.coppersurfer.tk%3A6969","udp%3A%2F%2Fexodus.desync.com%3A6969"],"infoHash":"2ec402dab0d9859659ce4b2e53b595e354d3574a","infoHashBuffer":{"type":"Buffer","data":[46,196,2,218,176,217,133,150,89,206,75,46,83,181,149,227,84,211,87,74]},"announce":[],"urlList":[]}}